<?xml version="1.0" encoding="utf-8"?>
<svg version="1.1" xmlns:xlink="http://www.w3.org/1999/xlink" width="12px" height="12px" viewBox="840 1345  12 12" xmlns="http://www.w3.org/2000/svg">
  <path d="M 840.5 1347  A 1.5 1.5 0 0 1 842 1345.5 L 850 1345.5  A 1.5 1.5 0 0 1 851.5 1347 L 851.5 1355  A 1.5 1.5 0 0 1 850 1356.5 L 842 1356.5  A 1.5 1.5 0 0 1 840.5 1355 L 840.5 1347  Z " fill-rule="nonzero" fill="#ffffff" stroke="none" />
  <path d="M 840.5 1347  A 1.5 1.5 0 0 1 842 1345.5 L 850 1345.5  A 1.5 1.5 0 0 1 851.5 1347 L 851.5 1355  A 1.5 1.5 0 0 1 850 1356.5 L 842 1356.5  A 1.5 1.5 0 0 1 840.5 1355 L 840.5 1347  Z " stroke-width="1" stroke="#797979" fill="none" />
</svg>