<?xml version="1.0" encoding="utf-8"?>
<svg version="1.1" xmlns:xlink="http://www.w3.org/1999/xlink" width="12px" height="12px" viewBox="340 474  12 12" xmlns="http://www.w3.org/2000/svg">
  <path d="M 340.5 476  A 1.5 1.5 0 0 1 342 474.5 L 350 474.5  A 1.5 1.5 0 0 1 351.5 476 L 351.5 484  A 1.5 1.5 0 0 1 350 485.5 L 342 485.5  A 1.5 1.5 0 0 1 340.5 484 L 340.5 476  Z " fill-rule="nonzero" fill="#f0f0f0" stroke="none" />
  <path d="M 340.5 476  A 1.5 1.5 0 0 1 342 474.5 L 350 474.5  A 1.5 1.5 0 0 1 351.5 476 L 351.5 484  A 1.5 1.5 0 0 1 350 485.5 L 342 485.5  A 1.5 1.5 0 0 1 340.5 484 L 340.5 476  Z " stroke-width="1" stroke="#797979" fill="none" />
</svg>