<?xml version="1.0" encoding="utf-8"?>
<svg version="1.1" xmlns:xlink="http://www.w3.org/1999/xlink" width="12px" height="12px" viewBox="505 1119  12 12" xmlns="http://www.w3.org/2000/svg">
  <path d="M 511 1119  C 514.36 1119  517 1121.64  517 1125  C 517 1128.36  514.36 1131  511 1131  C 507.64 1131  505 1128.36  505 1125  C 505 1121.64  507.64 1119  511 1119  Z " fill-rule="nonzero" fill="#ffffff" stroke="none" />
  <path d="M 511 1119.5  C 514.08 1119.5  516.5 1121.92  516.5 1125  C 516.5 1128.08  514.08 1130.5  511 1130.5  C 507.92 1130.5  505.5 1128.08  505.5 1125  C 505.5 1121.92  507.92 1119.5  511 1119.5  Z " stroke-width="1" stroke="#797979" fill="none" />
  <path d="M 511 1128  C 509.32 1128  508 1126.68  508 1125  C 508 1123.32  509.32 1122  511 1122  C 512.68 1122  514 1123.32  514 1125  C 514 1126.68  512.68 1128  511 1128  " fill-rule="nonzero" fill="#797979" stroke="none" />
</svg>