<?xml version="1.0" encoding="utf-8"?>
<svg version="1.1" xmlns:xlink="http://www.w3.org/1999/xlink" width="12px" height="12px" viewBox="330 317  12 12" xmlns="http://www.w3.org/2000/svg">
  <path d="M 336 317  C 339.36 317  342 319.64  342 323  C 342 326.36  339.36 329  336 329  C 332.64 329  330 326.36  330 323  C 330 319.64  332.64 317  336 317  Z " fill-rule="nonzero" fill="#ffffff" stroke="none" />
  <path d="M 336 317.5  C 339.08 317.5  341.5 319.92  341.5 323  C 341.5 326.08  339.08 328.5  336 328.5  C 332.92 328.5  330.5 326.08  330.5 323  C 330.5 319.92  332.92 317.5  336 317.5  Z " stroke-width="1" stroke="#797979" fill="none" />
  <path d="M 336 326  C 334.32 326  333 324.68  333 323  C 333 321.32  334.32 320  336 320  C 337.68 320  339 321.32  339 323  C 339 324.68  337.68 326  336 326  " fill-rule="nonzero" fill="#797979" stroke="none" />
</svg>