<?xml version="1.0" encoding="utf-8"?>
<svg version="1.1" xmlns:xlink="http://www.w3.org/1999/xlink" width="12px" height="12px" viewBox="426 400  12 12" xmlns="http://www.w3.org/2000/svg">
  <path d="M 432 400  C 435.36 400  438 402.64  438 406  C 438 409.36  435.36 412  432 412  C 428.64 412  426 409.36  426 406  C 426 402.64  428.64 400  432 400  Z " fill-rule="nonzero" fill="#ffffff" stroke="none" />
  <path d="M 432 400.5  C 435.08 400.5  437.5 402.92  437.5 406  C 437.5 409.08  435.08 411.5  432 411.5  C 428.92 411.5  426.5 409.08  426.5 406  C 426.5 402.92  428.92 400.5  432 400.5  Z " stroke-width="1" stroke="#797979" fill="none" />
  <path d="M 432 409  C 430.32 409  429 407.68  429 406  C 429 404.32  430.32 403  432 403  C 433.68 403  435 404.32  435 406  C 435 407.68  433.68 409  432 409  " fill-rule="nonzero" fill="#797979" stroke="none" />
</svg>