<?xml version="1.0" encoding="utf-8"?>
<svg version="1.1" xmlns:xlink="http://www.w3.org/1999/xlink" width="12px" height="12px" viewBox="426 317  12 12" xmlns="http://www.w3.org/2000/svg">
  <path d="M 432 317  C 435.36 317  438 319.64  438 323  C 438 326.36  435.36 329  432 329  C 428.64 329  426 326.36  426 323  C 426 319.64  428.64 317  432 317  Z " fill-rule="nonzero" fill="#ffffff" stroke="none" />
  <path d="M 432 317.5  C 435.08 317.5  437.5 319.92  437.5 323  C 437.5 326.08  435.08 328.5  432 328.5  C 428.92 328.5  426.5 326.08  426.5 323  C 426.5 319.92  428.92 317.5  432 317.5  Z " stroke-width="1" stroke="#797979" fill="none" />
  <path d="M 432 326  C 430.32 326  429 324.68  429 323  C 429 321.32  430.32 320  432 320  C 433.68 320  435 321.32  435 323  C 435 324.68  433.68 326  432 326  " fill-rule="nonzero" fill="#797979" stroke="none" />
</svg>