<?xml version="1.0" encoding="utf-8"?>
<svg version="1.1" xmlns:xlink="http://www.w3.org/1999/xlink" width="12px" height="12px" viewBox="409 1119  12 12" xmlns="http://www.w3.org/2000/svg">
  <path d="M 415 1119  C 418.36 1119  421 1121.64  421 1125  C 421 1128.36  418.36 1131  415 1131  C 411.64 1131  409 1128.36  409 1125  C 409 1121.64  411.64 1119  415 1119  Z " fill-rule="nonzero" fill="#ffffff" stroke="none" />
  <path d="M 415 1119.5  C 418.08 1119.5  420.5 1121.92  420.5 1125  C 420.5 1128.08  418.08 1130.5  415 1130.5  C 411.92 1130.5  409.5 1128.08  409.5 1125  C 409.5 1121.92  411.92 1119.5  415 1119.5  Z " stroke-width="1" stroke="#797979" fill="none" />
  <path d="M 415 1128  C 413.32 1128  412 1126.68  412 1125  C 412 1123.32  413.32 1122  415 1122  C 416.68 1122  418 1123.32  418 1125  C 418 1126.68  416.68 1128  415 1128  " fill-rule="nonzero" fill="#797979" stroke="none" />
</svg>