<?xml version="1.0" encoding="utf-8"?>
<svg version="1.1" xmlns:xlink="http://www.w3.org/1999/xlink" width="12px" height="12px" viewBox="242 1331  12 12" xmlns="http://www.w3.org/2000/svg">
  <path d="M 242.5 1333  A 1.5 1.5 0 0 1 244 1331.5 L 252 1331.5  A 1.5 1.5 0 0 1 253.5 1333 L 253.5 1341  A 1.5 1.5 0 0 1 252 1342.5 L 244 1342.5  A 1.5 1.5 0 0 1 242.5 1341 L 242.5 1333  Z " fill-rule="nonzero" fill="#ffffff" stroke="none" />
  <path d="M 242.5 1333  A 1.5 1.5 0 0 1 244 1331.5 L 252 1331.5  A 1.5 1.5 0 0 1 253.5 1333 L 253.5 1341  A 1.5 1.5 0 0 1 252 1342.5 L 244 1342.5  A 1.5 1.5 0 0 1 242.5 1341 L 242.5 1333  Z " stroke-width="1" stroke="#797979" fill="none" />
  <path d="M 244.571428571429 1337  L 247.142857142857 1339.57142857143  L 251.428571428571 1333.57142857143  " stroke-width="2.57142857142857" stroke="#797979" fill="none" />
</svg>