<?xml version="1.0" encoding="utf-8"?>
<svg version="1.1" xmlns:xlink="http://www.w3.org/1999/xlink" width="12px" height="12px" viewBox="330 279  12 12" xmlns="http://www.w3.org/2000/svg">
  <path d="M 336 279  C 339.36 279  342 281.64  342 285  C 342 288.36  339.36 291  336 291  C 332.64 291  330 288.36  330 285  C 330 281.64  332.64 279  336 279  Z " fill-rule="nonzero" fill="#ffffff" stroke="none" />
  <path d="M 336 279.5  C 339.08 279.5  341.5 281.92  341.5 285  C 341.5 288.08  339.08 290.5  336 290.5  C 332.92 290.5  330.5 288.08  330.5 285  C 330.5 281.92  332.92 279.5  336 279.5  Z " stroke-width="1" stroke="#797979" fill="none" />
  <path d="M 336 288  C 334.32 288  333 286.68  333 285  C 333 283.32  334.32 282  336 282  C 337.68 282  339 283.32  339 285  C 339 286.68  337.68 288  336 288  " fill-rule="nonzero" fill="#797979" stroke="none" />
</svg>