<?xml version="1.0" encoding="utf-8"?>
<svg version="1.1" xmlns:xlink="http://www.w3.org/1999/xlink" width="12px" height="12px" viewBox="242 1300  12 12" xmlns="http://www.w3.org/2000/svg">
  <path d="M 242.5 1302  A 1.5 1.5 0 0 1 244 1300.5 L 252 1300.5  A 1.5 1.5 0 0 1 253.5 1302 L 253.5 1310  A 1.5 1.5 0 0 1 252 1311.5 L 244 1311.5  A 1.5 1.5 0 0 1 242.5 1310 L 242.5 1302  Z " fill-rule="nonzero" fill="#ffffff" stroke="none" />
  <path d="M 242.5 1302  A 1.5 1.5 0 0 1 244 1300.5 L 252 1300.5  A 1.5 1.5 0 0 1 253.5 1302 L 253.5 1310  A 1.5 1.5 0 0 1 252 1311.5 L 244 1311.5  A 1.5 1.5 0 0 1 242.5 1310 L 242.5 1302  Z " stroke-width="1" stroke="#797979" fill="none" />
</svg>