<?xml version="1.0" encoding="utf-8"?>
<svg version="1.1" xmlns:xlink="http://www.w3.org/1999/xlink" width="12px" height="12px" viewBox="481 279  12 12" xmlns="http://www.w3.org/2000/svg">
  <path d="M 487 279  C 490.36 279  493 281.64  493 285  C 493 288.36  490.36 291  487 291  C 483.64 291  481 288.36  481 285  C 481 281.64  483.64 279  487 279  Z " fill-rule="nonzero" fill="#ffffff" stroke="none" />
  <path d="M 487 279.5  C 490.08 279.5  492.5 281.92  492.5 285  C 492.5 288.08  490.08 290.5  487 290.5  C 483.92 290.5  481.5 288.08  481.5 285  C 481.5 281.92  483.92 279.5  487 279.5  Z " stroke-width="1" stroke="#797979" fill="none" />
  <path d="M 487 288  C 485.32 288  484 286.68  484 285  C 484 283.32  485.32 282  487 282  C 488.68 282  490 283.32  490 285  C 490 286.68  488.68 288  487 288  " fill-rule="nonzero" fill="#797979" stroke="none" />
</svg>