<?xml version="1.0" encoding="utf-8"?>
<svg version="1.1" xmlns:xlink="http://www.w3.org/1999/xlink" width="12px" height="12px" viewBox="342 370  12 12" xmlns="http://www.w3.org/2000/svg">
  <path d="M 342.5 372  A 1.5 1.5 0 0 1 344 370.5 L 352 370.5  A 1.5 1.5 0 0 1 353.5 372 L 353.5 380  A 1.5 1.5 0 0 1 352 381.5 L 344 381.5  A 1.5 1.5 0 0 1 342.5 380 L 342.5 372  Z " fill-rule="nonzero" fill="#ffffff" stroke="none" />
  <path d="M 342.5 372  A 1.5 1.5 0 0 1 344 370.5 L 352 370.5  A 1.5 1.5 0 0 1 353.5 372 L 353.5 380  A 1.5 1.5 0 0 1 352 381.5 L 344 381.5  A 1.5 1.5 0 0 1 342.5 380 L 342.5 372  Z " stroke-width="1" stroke="#797979" fill="none" />
  <path d="M 344.571428571429 376  L 347.142857142857 378.571428571429  L 351.428571428571 372.571428571429  " stroke-width="2.57142857142857" stroke="#797979" fill="none" />
</svg>